Coordinates
version=1
nRows=26
nColumns=24
inDegrees=yes

Units are S.I. units (second, meters, Newtons, ...)
Angles are in degrees.

endheader
time	pelvis_tilt	pelvis_list	pelvis_rotation	pelvis_tx	pelvis_ty	pelvis_tz	hip_flexion_r	hip_adduction_r	hip_rotation_r	knee_angle_r	ankle_angle_r	subtalar_angle_r	mtp_angle_r	hip_flexion_l	hip_adduction_l	hip_rotation_l	knee_angle_l	ankle_angle_l	subtalar_angle_l	mtp_angle_l	lumbar_extension	lumbar_bending	lumbar_rotation
      1.16733333	     -4.84528951	     -4.12190500	     -3.60640554	     -0.06222614	      0.99584578	      0.28726303	    -13.09793981	      9.63351817	      3.97156461	     -4.42453063	     14.54162289	     -0.28477475	      2.85780485	     26.05977980	     -3.65089025	     -4.25469197	      8.31839983	      3.83960982	     -2.41247532	     -4.76109441	      0.59970099	      3.68725740	      8.32392844
      1.17150000	     -4.84738049	     -3.95690625	     -3.68099475	     -0.05632599	      0.99499971	      0.28710924	    -13.22721524	      9.40185557	      3.81953630	     -4.88267437	     14.92179369	      0.15078105	      2.87035889	     26.19569390	     -3.40872714	     -4.33835985	      7.70112825	      4.04642316	     -2.32181008	     -4.63900939	      0.67372895	      3.48640793	      8.51754618
      1.17566667	     -4.83083520	     -3.78285586	     -3.74545327	     -0.05039985	      0.99420522	      0.28696639	    -13.37156894	      9.16863735	      3.71261047	     -5.34238540	     15.15916709	      0.37189483	      2.88094727	     26.31309677	     -3.15931052	     -4.38215748	      7.02948059	      4.19758837	     -2.32811569	     -4.44231951	      0.70430660	      3.27177159	      8.57273686
      1.17983333	     -4.80256857	     -3.60176241	     -3.79032719	     -0.04443022	      0.99344942	      0.28683735	    -13.55717540	      8.94298553	      3.74673197	     -5.73721109	     15.25495910	      0.30951748	      2.88563251	     26.41348434	     -2.90166935	     -4.33832725	      6.32401881	      4.25884048	     -2.47577306	     -4.40364226	      0.70813142	      3.05371076	      8.59663394
      1.18400000	     -4.78291875	     -3.39928421	     -3.84371181	     -0.03841529	      0.99271662	      0.28669459	    -13.67072554	      8.68419544	      3.59501058	     -6.26934013	     15.54460038	      0.62325523	      2.92119543	     26.54876431	     -2.62987001	     -4.43304254	      5.52255651	      4.31983364	     -2.42410400	     -4.11448202	      0.77741848	      2.78304115	      8.75511636
      1.18816667	     -4.73416721	     -3.19854906	     -3.86636679	     -0.03234903	      0.99204648	      0.28656315	    -13.85545121	      8.44715172	      3.60469863	     -6.71198665	     15.62273388	      0.54309525	      2.93182746	     26.63681381	     -2.35312394	     -4.38317126	      4.72854745	      4.29156899	     -2.57035005	     -4.03504356	      0.79916545	      2.50736103	      8.76420625
      1.19233333	     -4.68642306	     -2.98248838	     -3.88613435	     -0.02625692	      0.99140776	      0.28640856	    -14.01534245	      8.19486928	      3.58903827	     -7.19949643	     15.69656702	      0.48735781	      2.94588017	     26.73093386	     -2.06175264	     -4.34926735	      3.90322632	      4.19297410	     -2.71276614	     -3.95337174	      0.81406805	      2.23045931	      8.79368437
      1.19650000	     -4.66177585	     -2.75776154	     -3.91174636	     -0.02013153	      0.99076895	      0.28622299	    -14.09102626	      7.92042117	      3.39637944	     -7.81588435	     15.92620792	      0.83405319	      3.05049163	     26.84710570	     -1.76589832	     -4.31031992	      3.06932775	      3.94579872	     -2.93559476	     -3.40333144	      0.87424563	      1.95251419	      8.93050719
      1.20066667	     -4.59672322	     -2.52651727	     -3.90315858	     -0.01394909	      0.99021968	      0.28605292	    -14.25622340	      7.66625592	      3.39615802	     -8.32902494	     15.91856701	      0.66539820	      3.06856606	     26.92426004	     -1.45563605	     -4.23747482	      2.21084990	      3.75303960	     -3.09678379	     -3.30925850	      0.88797034	      1.62976582	      8.92559449
      1.20483333	     -4.54550977	     -2.29651602	     -3.89912341	     -0.00774101	      0.98968899	      0.28587862	    -14.39063044	      7.41376286	      3.40663588	     -8.87228358	     15.87898220	      0.55390441	      4.07060851	     26.98954152	     -1.14783108	     -4.05881119	      1.41501560	      3.23280136	     -3.57179802	      0.89878285	      0.91460544	      1.32682154	      8.91022421
      1.20900000	     -4.48512125	     -2.05074320	     -3.88329493	     -0.00150313	      0.98921877	      0.28567586	    -14.50545288	      7.14629853	      3.34518749	     -9.46981128	     15.82547163	      0.43156612	      4.08049783	     27.06771880	     -0.82460593	     -3.98070192	      0.55507936	      2.87541372	     -3.76861926	      0.90914266	      0.95350163	      0.98706241	      8.94303194
      1.21316667	     -4.45906936	     -1.80671910	     -3.86550624	      0.00475041	      0.98874311	      0.28543683	    -14.55447574	      6.87923028	      3.26052857	    -10.12953330	     15.80755828	      0.46021842	      4.16198086	     27.13632241	     -0.49236077	     -3.63484608	     -0.20513922	      2.24426354	     -4.49411012	      1.01084386	      1.01383678	      0.67989548	      8.99845383
      1.21733333	     -4.42088501	     -1.55416219	     -3.83446497	      0.01103650	      0.98833807	      0.28518796	    -14.60991202	      6.61198609	      3.20226271	    -10.79475923	     15.69748380	      0.34980835	      4.28236215	     27.20157909	     -0.15074301	     -3.34088072	     -0.98984354	      1.64132143	     -5.07151551	      1.15659953	      1.06989446	      0.34392801	      8.98999026
      1.22150000	     -4.37449258	     -1.29355654	     -3.79842129	      0.01734007	      0.98799518	      0.28491768	    -14.65108654	      6.33634412	      3.12491216	    -11.50155207	     15.55285383	      0.24743374	      4.44446203	     27.25478708	      0.20120471	     -3.03687204	     -1.76910585	      0.99885755	     -5.66982210	      1.33023663	      1.12070410	     -0.00186574	      8.98847341
      1.22566667	     -4.33121107	     -1.03215070	     -3.75718414	      0.02365687	      0.98770071	      0.28461875	    -14.66651720	      6.06027895	      3.03798224	    -12.24761182	     15.36593929	      0.14566980	      4.63667199	     27.31338447	      0.55523439	     -2.73319676	     -2.55528366	      0.33799213	     -6.26549743	      1.51077572	      1.17834776	     -0.34360660	      8.97279642
      1.22983333	     -4.29307290	     -0.76235807	     -3.70780589	      0.02998925	      0.98745765	      0.28429206	    -14.65034925	      5.77605773	      2.92636194	    -13.03931976	     15.13946827	      0.05263082	      4.87221785	     27.37358770	      0.92098444	     -2.41039986	     -3.33746859	     -0.33056600	     -6.86928162	      1.70106776	      1.24069418	     -0.69675831	      8.95163773
      1.23400000	     -4.22688036	     -0.48562785	     -3.62766157	      0.03634504	      0.98729692	      0.28390942	    -14.64621337	      5.48710296	      2.75968877	    -13.85884724	     14.85849104	     -0.04258336	      5.29881668	     27.39954820	      1.30983901	     -2.02313350	     -4.11685878	     -0.95259076	     -7.48090032	      1.99805740	      1.26956503	     -1.07653080	      8.93122468
      1.23816667	     -4.22210588	     -0.21548802	     -3.59347529	      0.04267894	      0.98713053	      0.28356007	    -14.52886591	      5.19549413	      2.64069346	    -14.76732923	     14.55832057	     -0.10065791	      5.59920737	     27.50857861	      1.66122536	     -1.80158308	     -4.94024120	     -1.57823173	     -7.97035988	      2.16530611	      1.37069772	     -1.40680113	      8.88857980
      1.24233333	     -4.14590586	      0.07312286	     -3.52504497	      0.04904607	      0.98711294	      0.28315082	    -14.47389911	      4.88087268	      2.44413267	    -15.69199796	     14.19150385	     -0.13268321	      6.00606880	     27.52253971	      2.05409547	     -1.49251455	     -5.73197740	     -2.16968636	     -8.52393307	      2.35308430	      1.38538050	     -1.78753076	      8.84103220
      1.24650000	     -4.10771454	      0.35209673	     -3.45783412	      0.05539954	      0.98709548	      0.28272482	    -14.34007645	      4.57429677	      2.23466119	    -16.68399232	     13.78516675	     -0.15491379	      6.48195933	     27.59270347	      2.42897937	     -1.24204991	     -6.56835453	     -2.66509818	     -8.95979464	      2.52800015	      1.44824529	     -2.14400498	      8.79096316
      1.25066667	     -3.96736965	      0.65351678	     -3.40605309	      0.06179117	      0.98730588	      0.28233486	    -14.31454762	      4.23378113	      2.05778409	    -17.64719605	     13.14573286	     -0.29789730	     10.06097865	     27.53617406	      2.81937738	     -1.07115003	     -7.38258142	     -3.11228333	     -9.34784021	      3.53254365	      1.37290206	     -2.55258518	      8.77457894
      1.25483333	     -3.95457599	      0.91186960	     -3.31153919	      0.06812677	      0.98734135	      0.28183429	    -14.08541439	      3.94102073	      1.76354167	    -18.75484703	     12.66864671	     -0.23706470	     10.14516766	     27.66002969	      3.17459541	     -0.89391951	     -8.30200687	     -3.34053146	     -9.51732617	      3.52841490	      1.46842982	     -2.87630119	      8.70909090
      1.25900000	     -3.83411585	      1.18515440	     -3.23729145	      0.07448310	      0.98760459	      0.28137569	    -13.96478888	      3.62145263	      1.50673728	    -19.85197119	     12.04665693	     -0.27821363	     10.18292158	     27.65095400	      3.53538994	     -0.80726369	     -9.20083997	     -3.50903855	     -9.66306302	      3.52355138	      1.43023380	     -3.23463823	      8.68755353
      1.26316667	     -3.75569896	      1.46700525	     -3.16316900	      0.08082058	      0.98785301	      0.28086105	    -13.73990482	      3.26964653	      1.16567407	    -21.05928885	     11.47619668	     -0.05074648	     10.55073016	     27.64961185	      3.91977790	     -0.57396618	    -10.02623800	     -3.75804289	    -10.06890333	      3.47996122	      1.41957654	     -3.60128071	      8.55808389
      1.26733333	     -3.58462611	      1.74388167	     -3.06204310	      0.08716008	      0.98828668	      0.28031766	    -13.61241837	      2.92145055	      0.79837495	    -22.23498768	     10.66390372	     -0.04226420	     13.73690952	     27.53824558	      4.31116054	     -0.37392013	    -10.84233158	     -3.90791168	    -10.32486046	      3.01494579	      1.28954910	     -3.96042012	      8.46704699
      1.27150000	     -3.47996816	      1.99197908	     -2.99475449	      0.09346246	      0.98867816	      0.27982660	    -13.36824164	      2.59815248	      0.49239428	    -23.48884958	      9.86677132	     -0.03564513	     13.75037385	     27.51650048	      4.63898382	     -0.34543167	    -11.71427973	     -3.88400229	    -10.38069183	      3.01286211	      1.26855438	     -4.27827552	      8.45348812
